<?xml version="1.0" encoding="UTF-8" standalone="no"?>
<svg
   viewBox="0 0 24.259636 21.647175"
   width="24.259636"
   height="21.647175"
   fill="currentColor"
   version="1.1"
   id="svg2"
   sodipodi:docname="house-checked.svg"
   xmlns:inkscape="http://www.inkscape.org/namespaces/inkscape"
   xmlns:sodipodi="http://sodipodi.sourceforge.net/DTD/sodipodi-0.dtd"
   xmlns="http://www.w3.org/2000/svg"
   xmlns:svg="http://www.w3.org/2000/svg">
  <defs
     id="defs2" />
  <sodipodi:namedview
     id="namedview2"
     pagecolor="#ffffff"
     bordercolor="#cccccc"
     borderopacity="1"
     inkscape:showpageshadow="0"
     inkscape:pageopacity="1"
     inkscape:pagecheckerboard="0"
     inkscape:deskcolor="#d1d1d1">
    <inkscape:page
       x="0"
       y="0"
       width="24.259636"
       height="21.647175"
       id="page2"
       margin="0"
       bleed="0" />
  </sodipodi:namedview>
  <path
     d="m 3.2496374,0.94717598 c -0.414,0 -0.75,0.33600002 -0.75,0.75000002 v 2.982 l -2.30300001,2.512 c -0.28,0.305 -0.258,0.78 0.047,1.06 0.305,0.28 0.77900001,0.258 1.05900001,-0.047 l 0.197,-0.215 v 5.707 c 0,0.921 -10e-4,1.687001 0.08,2.293 0.084,0.628 0.271,1.195 0.727,1.65 0.455,0.455 1.02,0.642 1.648,0.727 0.606,0.081 1.373,0.08 2.295,0.08 h 6.0189996 c -0.207508,-0.478593 -0.348809,-0.983238 -0.42,-1.5 h -0.85 v -9.999 c 0.165,0.128 0.336,0.238 0.524,0.32 0.563,0.248 1.184,0.233 1.986,0.233 h 5.99 v 1.329072 c 0.515949,0.06631 1.020537,0.202218 1.5,0.404 V 7.500176 h 0.75 c 0.297,0 0.568,-0.177 0.688,-0.45 0.119,-0.272 0.066,-0.589 -0.135,-0.808 l -4.31,-4.703 c -0.542,-0.59100002 -0.951,-1.05900002 -1.514,-1.30700002 -0.563,-0.247 -1.187,-0.23200000186 -1.988,-0.23200000186 H 6.2496374 c -0.184,0 -0.36,0.0670000019 -0.496,0.18800000186 l -0.057,0.054 -1.697,1.85200002 v -0.397 c 0,-0.414 -0.336,-0.75000002 -0.75,-0.75000002 z m 4.705,1.50200002 h 6.5349996 c 0.931,0 1.176,0.015 1.383,0.105 0.207,0.091 0.384,0.26 1.014,0.947 l 2.646822,3.0585049 -6.064716,-0.020447 C 12.537748,6.5360939 12.02693,6.4833399 11.81993,6.3933397 11.61293,6.3023397 11.192565,6.008657 10.562565,5.321657 Z m -1.705,0.36 3.25,3.546 v 10.592001 h -2.5 v -3.250001 c 0,-0.414 -0.336,-0.75 -0.75,-0.75 -0.414,0 -0.75,0.336 -0.75,0.75 v 3.244001 c -0.57,-0.004 -0.998,-0.014 -1.344,-0.06 -0.461,-0.062 -0.659,-0.171 -0.789,-0.301 -0.13,-0.13 -0.239,-0.328 -0.301,-0.789 -0.065,-0.483 -0.066,-1.13 -0.066,-2.094001 l 0.122683,-7.2005234 z m 0,5.139 c -0.552,0 -1,0.447 -1,1 0,0.553 0.448,1 1,1 0.552,0 1,-0.447 1,-1 0,-0.553 -0.448,-1 -1,-1 z m 12.2599996,2.199 c -3.171,0 -5.75,2.579 -5.75,5.750001 0,3.171 2.579,5.749999 5.75,5.749999 3.171,0 5.75,-2.578999 5.75,-5.749999 0,-3.171001 -2.579,-5.750001 -5.75,-5.750001 z m 0,1.5 c 2.343,0 4.25,1.907 4.25,4.250001 0,2.343 -1.907,4.249999 -4.25,4.249999 -2.343,0 -4.25,-1.906999 -4.25,-4.249999 0,-2.343001 1.907,-4.250001 4.25,-4.250001 z m 1.979,2.008 c -0.074,0.003 -0.148,0.017 -0.221,0.043 -1.04,0.368 -1.878,1.487 -2.393,2.347001 -0.538,-0.457001 -1.072,-0.621 -1.16,-0.646001 -0.398,-0.112999 -0.813,0.120001 -0.926,0.518001 -0.113,0.397999 0.118,0.812999 0.516,0.925999 0.007,0.002 0.698,0.222 1.035,0.896 0.127,0.254001 0.387,0.414001 0.67,0.414001 v 0.002 h 0.018 c 0.29,-0.007 0.552,-0.181 0.668,-0.446999 0.377,-0.853001 1.271,-2.312001 2.072,-2.596 0.391,-0.138001 0.595,-0.567 0.457,-0.957001 -0.113,-0.318 -0.417,-0.512 -0.736,-0.500001 z"
     id="path2"
     sodipodi:nodetypes="ssccsccscccscccccsccccsccccsscccsscscccscccccccsssccscsccsssssssssssssssccccscsccccccc" />
</svg>
